<svg xmlns="http://www.w3.org/2000/svg" viewBox="0 0 290 64" width="290" height="64" role="img" aria-labelledby="logo-title">
  <title id="logo-title">PT. Araya Internusa</title>
  <g fill="none" stroke="#fff">
    <circle cx="31" cy="32" r="28.5" stroke-width="3"/>
    <path d="M22 12 C11 17 10 32 16 41 C23 51 38 52 46 42 V32 H21" stroke-width="4.5" stroke-linejoin="round"/>
    <path d="M31 9 V45 M24 32 H59" stroke-width="5"/>
  </g>
  <g fill="#fff" fill-rule="evenodd"><path d="M74 30 L74 4 L83.872 4 C87.612 4 90.051 4.13 91.187 4.39 C92.933 4.78 94.394 5.629 95.572 6.935 C96.75 8.242 97.338 9.93 97.338 11.999 C97.338 13.595 96.999 14.937 96.32 16.025 C95.641 17.112 94.779 17.967 93.733 18.587 C92.687 19.208 91.623 19.619 90.543 19.82 C89.074 20.068 86.947 20.192 84.163 20.192 L80.152 20.192 L80.152 30 Z M80.152 8.398 L80.152 15.776 L83.518 15.776 C85.943 15.776 87.564 15.64 88.381 15.368 C89.199 15.096 89.84 14.671 90.304 14.091 C90.768 13.512 91 12.838 91 12.07 C91 11.124 90.674 10.343 90.023 9.729 C89.372 9.114 88.548 8.729 87.55 8.576 C86.816 8.457 85.34 8.398 83.123 8.398 Z M109.247 30 L109.247 8.398 L100.207 8.398 L100.207 4 L124.418 4 L124.418 8.398 L115.398 8.398 L115.398 30 Z M123.628 30 L123.628 25.016 L129.468 25.016 L129.468 30 Z M173.215 30 L166.523 30 L163.863 24.094 L151.684 24.094 L149.17 30 L142.644 30 L154.511 4 L161.015 4 Z M161.888 19.714 L157.69 10.065 L153.575 19.714 Z M176.498 30 L176.498 4 L189.446 4 C192.701 4 195.067 4.234 196.543 4.701 C198.018 5.168 199.199 5.998 200.086 7.192 C200.973 8.387 201.416 9.752 201.416 11.289 C201.416 13.24 200.744 14.851 199.4 16.122 C198.056 17.393 196.047 18.194 193.373 18.525 C194.704 19.187 195.802 19.915 196.667 20.707 C197.533 21.499 198.701 22.906 200.169 24.928 L203.889 30 L196.532 30 L192.085 24.342 C190.505 22.321 189.425 21.047 188.843 20.52 C188.261 19.994 187.644 19.634 186.993 19.439 C186.342 19.244 185.31 19.146 183.897 19.146 L182.65 19.146 L182.65 30 Z M182.65 14.996 L187.201 14.996 C190.152 14.996 191.995 14.889 192.729 14.677 C193.463 14.464 194.038 14.097 194.454 13.577 C194.87 13.057 195.078 12.407 195.078 11.626 C195.078 10.751 194.804 10.045 194.257 9.507 C193.709 8.969 192.937 8.629 191.939 8.487 C191.441 8.428 189.944 8.398 187.45 8.398 L182.65 8.398 Z M234.689 30 L227.997 30 L225.337 24.094 L213.158 24.094 L210.644 30 L204.118 30 L215.985 4 L222.489 4 Z M223.362 19.714 L219.164 10.065 L215.049 19.714 Z M242.046 30 L242.046 19.057 L230.885 4 L238.097 4 L245.267 14.286 L252.291 4 L259.378 4 L248.176 19.093 L248.176 30 Z M286 30 L279.308 30 L276.648 24.094 L264.47 24.094 L261.955 30 L255.429 30 L267.296 4 L273.801 4 Z M274.674 19.714 L270.476 10.065 L266.361 19.714 Z"/><path d="M74 60.554 L74 35.428 L79.318 35.428 L79.318 60.554 Z M84.439 60.554 L84.439 35.428 L89.614 35.428 L100.394 52.208 L100.394 35.428 L105.336 35.428 L105.336 60.554 L99.999 60.554 L89.38 44.169 L89.38 60.554 Z M116.889 60.554 L116.889 39.679 L109.073 39.679 L109.073 35.428 L130.005 35.428 L130.005 39.679 L122.207 39.679 L122.207 60.554 Z M133.437 60.554 L133.437 35.428 L152.968 35.428 L152.968 39.679 L138.755 39.679 L138.755 45.249 L151.98 45.249 L151.98 49.483 L138.755 49.483 L138.755 56.321 L153.471 56.321 L153.471 60.554 Z M157.999 60.554 L157.999 35.428 L169.193 35.428 C172.007 35.428 174.053 35.654 175.328 36.105 C176.604 36.557 177.625 37.359 178.392 38.514 C179.159 39.668 179.542 40.987 179.542 42.473 C179.542 44.358 178.961 45.915 177.799 47.143 C176.637 48.371 174.9 49.145 172.588 49.465 C173.738 50.105 174.688 50.808 175.436 51.574 C176.185 52.339 177.194 53.699 178.464 55.653 L181.68 60.554 L175.319 60.554 L171.474 55.087 C170.109 53.133 169.175 51.902 168.671 51.394 C168.168 50.885 167.635 50.537 167.072 50.348 C166.509 50.16 165.617 50.065 164.395 50.065 L163.317 50.065 L163.317 60.554 Z M163.317 46.055 L167.252 46.055 C169.803 46.055 171.397 45.952 172.031 45.746 C172.666 45.541 173.163 45.186 173.523 44.684 C173.882 44.181 174.062 43.552 174.062 42.798 C174.062 41.953 173.825 41.27 173.352 40.75 C172.879 40.23 172.211 39.902 171.349 39.765 C170.917 39.708 169.624 39.679 167.468 39.679 L163.317 39.679 Z M184.609 60.554 L184.609 35.428 L189.783 35.428 L200.564 52.208 L200.564 35.428 L205.505 35.428 L205.505 60.554 L200.169 60.554 L189.55 44.169 L189.55 60.554 Z M211.093 35.428 L216.411 35.428 L216.411 49.037 C216.411 51.196 216.477 52.596 216.609 53.236 C216.837 54.264 217.379 55.09 218.235 55.713 C219.092 56.335 220.262 56.647 221.748 56.647 C223.257 56.647 224.395 56.352 225.162 55.764 C225.928 55.176 226.389 54.453 226.545 53.596 C226.701 52.739 226.779 51.316 226.779 49.328 L226.779 35.428 L232.097 35.428 L232.097 48.626 C232.097 51.642 231.953 53.773 231.666 55.018 C231.378 56.264 230.848 57.315 230.076 58.172 C229.303 59.029 228.27 59.712 226.976 60.22 C225.683 60.729 223.994 60.983 221.91 60.983 C219.394 60.983 217.486 60.706 216.187 60.152 C214.887 59.597 213.86 58.878 213.105 57.992 C212.351 57.107 211.854 56.178 211.614 55.207 C211.267 53.767 211.093 51.642 211.093 48.831 Z M236.355 52.379 L241.53 51.899 C241.842 53.556 242.473 54.773 243.426 55.55 C244.378 56.327 245.663 56.715 247.28 56.715 C248.993 56.715 250.283 56.37 251.152 55.678 C252.02 54.987 252.454 54.179 252.454 53.253 C252.454 52.659 252.272 52.153 251.906 51.736 C251.541 51.319 250.903 50.956 249.993 50.648 C249.37 50.442 247.951 50.077 245.735 49.551 C242.884 48.877 240.883 48.049 239.733 47.066 C238.116 45.683 237.308 43.998 237.308 42.01 C237.308 40.73 237.688 39.533 238.449 38.419 C239.209 37.305 240.305 36.457 241.737 35.874 C243.168 35.291 244.896 35 246.92 35 C250.227 35 252.715 35.691 254.386 37.074 C256.057 38.456 256.934 40.302 257.018 42.61 L251.7 42.833 C251.472 41.541 250.984 40.613 250.235 40.047 C249.487 39.482 248.364 39.199 246.867 39.199 C245.321 39.199 244.112 39.502 243.237 40.107 C242.674 40.496 242.393 41.016 242.393 41.667 C242.393 42.261 242.656 42.77 243.183 43.192 C243.854 43.73 245.483 44.289 248.07 44.872 C250.658 45.455 252.571 46.058 253.811 46.68 C255.051 47.303 256.021 48.154 256.722 49.234 C257.423 50.314 257.773 51.648 257.773 53.236 C257.773 54.676 257.354 56.024 256.515 57.281 C255.677 58.538 254.491 59.472 252.958 60.083 C251.424 60.694 249.514 61 247.226 61 C243.896 61 241.339 60.266 239.554 58.798 C237.769 57.329 236.703 55.19 236.355 52.379 Z M286 60.554 L280.214 60.554 L277.915 54.847 L267.386 54.847 L265.211 60.554 L259.57 60.554 L269.829 35.428 L275.453 35.428 Z M276.208 50.614 L272.578 41.29 L269.021 50.614 Z"/></g>
</svg>